<svg width='180' height='180' fill="#fff" xmlns="http://www.w3.org/2000/svg" xmlns:xlink="http://www.w3.org/1999/xlink" version="1.1" x="0px" y="0px" viewBox="0 0 48 48" enable-background="new 0 0 48 48" xml:space="preserve"><g><path d="M24.1,32.8c0.3,0,0.5-0.1,0.7-0.3l8.8-8.8c0.2-0.2,0.3-0.4,0.3-0.7s-0.1-0.5-0.3-0.7l-8-8c-0.4-0.4-1-0.4-1.4,0l-8.8,8.8   c-0.4,0.4-0.4,1,0,1.4l8,8C23.6,32.7,23.9,32.8,24.1,32.8z M25,16.5l6.6,6.5l-7.4,7.4l-6.5-6.6L25,16.5z"/><path d="M13.6,27.8l-1,1c-0.4,0.4-0.4,1,0,1.4c0.2,0.2,0.5,0.3,0.7,0.3c0.3,0,0.5-0.1,0.7-0.3l1-1c0.4-0.4,0.4-1,0-1.4   C14.6,27.4,14,27.4,13.6,27.8z"/><path d="M20.6,33.4c-0.4-0.4-1-0.4-1.4,0l-1,1c-0.4,0.4-0.4,1,0,1.4c0.2,0.2,0.5,0.3,0.7,0.3c0.3,0,0.5-0.1,0.7-0.3l1-1   C21,34.4,21,33.8,20.6,33.4z"/><path d="M13.4,33.2l-1,1c-0.4,0.4-0.4,1,0,1.4c0.2,0.2,0.5,0.3,0.7,0.3c0.3,0,0.5-0.1,0.7-0.3l1-1c0.4-0.4,0.4-1,0-1.4   C14.4,32.8,13.8,32.8,13.4,33.2z"/><path d="M7.7,33.7l-1,1c-0.4,0.4-0.4,1,0,1.4c0.2,0.2,0.5,0.3,0.7,0.3c0.3,0,0.5-0.1,0.7-0.3l1-1c0.4-0.4,0.4-1,0-1.4   C8.8,33.3,8.1,33.3,7.7,33.7z"/><path d="M13.4,39.3l-1,1c-0.4,0.4-0.4,1,0,1.4c0.2,0.2,0.5,0.3,0.7,0.3c0.3,0,0.5-0.1,0.7-0.3l1-1c0.4-0.4,0.4-1,0-1.4   C14.4,38.9,13.7,38.9,13.4,39.3z"/><path d="M35.2,8.7c0.3,0,0.5-0.1,0.7-0.3l1-1c0.4-0.4,0.4-1,0-1.4c-0.4-0.4-1-0.4-1.4,0l-1,1c-0.4,0.4-0.4,1,0,1.4   C34.7,8.6,34.9,8.7,35.2,8.7z"/><path d="M40.8,14.3c0.3,0,0.5-0.1,0.7-0.3l1-1c0.4-0.4,0.4-1,0-1.4c-0.4-0.4-1-0.4-1.4,0l-1,1c-0.4,0.4-0.4,1,0,1.4   C40.3,14.2,40.5,14.3,40.8,14.3z"/><path d="M35,14c0.3,0,0.5-0.1,0.7-0.3l1-1c0.4-0.4,0.4-1,0-1.4c-0.4-0.4-1-0.4-1.4,0l-1,1c-0.4,0.4-0.4,1,0,1.4   C34.4,14,34.7,14,35,14z"/><path d="M29.3,14.5c0.3,0,0.5-0.1,0.7-0.3l1-1c0.4-0.4,0.4-1,0-1.4c-0.4-0.4-1-0.4-1.4,0l-1,1c-0.4,0.4-0.4,1,0,1.4   C28.8,14.4,29,14.5,29.3,14.5z"/><path d="M34.9,20.1c0.3,0,0.5-0.1,0.7-0.3l1-1c0.4-0.4,0.4-1,0-1.4c-0.4-0.4-1-0.4-1.4,0l-1,1c-0.4,0.4-0.4,1,0,1.4   C34.4,20,34.7,20.1,34.9,20.1z"/><path d="M44.9,30l-6-6l6-6c4.1-4.1,4.1-10.8,0-14.9c-2-2-4.6-3.1-7.5-3.1C34.7,0,32,1.1,30,3.1l-6,6l-6-6c-2-2-4.6-3.1-7.4-3.1   C7.7,0,5.1,1.1,3.1,3.1c-2,2-3.1,4.6-3.1,7.4C0,13.4,1.1,16,3.1,18l6,6l-6,6c-2,2-3.1,4.6-3.1,7.5c0,2.8,1.1,5.5,3.1,7.5   c2,2,4.6,3.1,7.4,3.1c2.8,0,5.5-1.1,7.5-3.1l6-6l6,6c2,2,4.6,3.1,7.5,3.1c2.8,0,5.5-1.1,7.5-3.1c2-2,3.1-4.6,3.1-7.4   C48,34.7,46.9,32,44.9,30z M4.5,16.6C2.9,15,2,12.8,2,10.5c0-2.3,0.9-4.4,2.5-6C6.1,2.9,8.3,2,10.5,2c2.3,0,4.4,0.9,6,2.5l6,6   l-2.3,2.3L20.1,13c0-0.2-0.1-0.4-0.3-0.6l-1-1c-0.4-0.4-1-0.4-1.4,0c-0.4,0.4-0.4,1,0,1.4l1,1c0.2,0.2,0.4,0.2,0.6,0.3l-4.5,4.5   c0-0.2-0.1-0.4-0.3-0.6l-1-1c-0.4-0.4-1-0.4-1.4,0c-0.4,0.4-0.4,1,0,1.4l1,1c0.2,0.2,0.4,0.3,0.6,0.3l-2.9,2.9L4.5,16.6z    M16.6,43.5c-1.6,1.6-3.8,2.5-6,2.5c-2.3,0-4.4-0.9-6-2.5c-1.6-1.6-2.5-3.8-2.5-6c0-2.3,0.9-4.4,2.5-6L31.4,4.5   C33,2.9,35.2,2,37.5,2c2.3,0,4.4,0.9,6,2.5c3.3,3.3,3.3,8.7,0,12.1L16.6,43.5z M43.5,43.5c-1.6,1.6-3.8,2.5-6,2.5   c-2.3,0-4.4-0.9-6-2.5l-6-6l2.7-2.7l0.7,0.7c0.2,0.2,0.5,0.3,0.7,0.3c0.3,0,0.5-0.1,0.7-0.3c0.4-0.4,0.4-1,0-1.4l-0.7-0.7l0.5-0.5   l3.7-3.7l0.7,0.7c0.2,0.2,0.5,0.3,0.7,0.3c0.3,0,0.5-0.1,0.7-0.3c0.4-0.4,0.4-1,0-1.4l-0.7-0.7l2.3-2.3l6,6c1.6,1.6,2.5,3.8,2.5,6   C46,39.7,45.1,41.9,43.5,43.5z"/><path d="M34.9,35.9c0.3,0,0.5-0.1,0.7-0.3c0.4-0.4,0.4-1,0-1.4l-1-1c-0.4-0.4-1-0.4-1.4,0c-0.4,0.4-0.4,1,0,1.4l1,1   C34.4,35.8,34.7,35.9,34.9,35.9z"/><path d="M35.1,38.8c-0.4-0.4-1-0.4-1.4,0c-0.4,0.4-0.4,1,0,1.4l1,1c0.2,0.2,0.5,0.3,0.7,0.3c0.3,0,0.5-0.1,0.7-0.3   c0.4-0.4,0.4-1,0-1.4L35.1,38.8z"/><path d="M40.7,33.2c-0.4-0.4-1-0.4-1.4,0c-0.4,0.4-0.4,1,0,1.4l1,1c0.2,0.2,0.5,0.3,0.7,0.3c0.3,0,0.5-0.1,0.7-0.3   c0.4-0.4,0.4-1,0-1.4L40.7,33.2z"/><path d="M7.3,11.1c-0.4-0.4-1-0.4-1.4,0c-0.4,0.4-0.4,1,0,1.4l1,1c0.2,0.2,0.5,0.3,0.7,0.3c0.3,0,0.5-0.1,0.7-0.3   c0.4-0.4,0.4-1,0-1.4L7.3,11.1z"/><path d="M12.6,7.9c0.2,0.2,0.5,0.3,0.7,0.3c0.3,0,0.5-0.1,0.7-0.3c0.4-0.4,0.4-1,0-1.4l-1-1c-0.4-0.4-1-0.4-1.4,0   c-0.4,0.4-0.4,1,0,1.4L12.6,7.9z"/><path d="M13,14c0.3,0,0.5-0.1,0.7-0.3c0.4-0.4,0.4-1,0-1.4l-1-1c-0.4-0.4-1-0.4-1.4,0c-0.4,0.4-0.4,1,0,1.4l1,1   C12.5,14,12.8,14,13,14z"/></g></svg>
