<?xml version="1.0" encoding="iso-8859-1"?>
<!-- Generator: Adobe Illustrator 19.0.0, SVG Export Plug-In . SVG Version: 6.00 Build 0)  -->
<svg version="1.1" id="Layer_1" xmlns="http://www.w3.org/2000/svg" xmlns:xlink="http://www.w3.org/1999/xlink" x="0px" y="0px"
	 viewBox="0 0 512 512" style="enable-background:new 0 0 512 512;" xml:space="preserve">
<circle style="fill:#FDDF6D;" cx="256.003" cy="208.963" r="200.794"/>
<path style="fill:#FCC56B;" d="M299.029,380.112c-110.895,0-200.793-89.898-200.793-200.793c0-59.247,25.666-112.493,66.479-149.246
	C99.709,63.311,55.206,130.938,55.206,208.962c0,110.895,89.898,200.793,200.793,200.793c51.648,0,98.736-19.507,134.314-51.546
	C362.927,372.211,331.901,380.112,299.029,380.112z"/>
<g>
	<path style="fill:#FFFFFF;" d="M189.242,195.686c10.958-4.719,23.029-7.344,35.717-7.344c10.777,0,21.11,1.894,30.694,5.354
		c14.319-10.613,23.604-27.632,23.604-46.822c0-32.169-26.078-58.247-58.247-58.247s-58.247,26.078-58.247,58.247
		C162.762,167.319,173.305,185.292,189.242,195.686z"/>
	<path style="fill:#FFFFFF;" d="M351.098,194.685c10.297-4.077,21.508-6.342,33.255-6.342s22.958,2.265,33.255,6.342
		c15.102-10.524,24.993-28.007,24.993-47.81c0-32.169-26.078-58.247-58.247-58.247s-58.247,26.078-58.247,58.247
		C326.105,166.677,335.996,184.161,351.098,194.685z"/>
</g>
<g>
	<path style="fill:#F9A880;" d="M184.959,223.531c-14.911,0-27.001,12.088-27.001,27h54.001
		C211.959,235.619,199.871,223.531,184.959,223.531z"/>
	<path style="fill:#F9A880;" d="M405.223,223.531c-14.911,0-27.001,12.088-27.001,27h54.001
		C432.224,235.619,420.135,223.531,405.223,223.531z"/>
</g>
<path style="fill:#7F184C;" d="M302.287,347.338L302.287,347.338c-44.888,0-81.277-36.389-81.277-81.277l0,0h162.554l0,0
	C383.564,310.949,347.175,347.338,302.287,347.338z"/>
<path style="fill:#F2F2F2;" d="M240.841,266.06v12.687c0,5.35,4.337,9.686,9.686,9.686h103.52c5.35,0,9.686-4.337,9.686-9.686
	V266.06L240.841,266.06L240.841,266.06z"/>
<path style="fill:#FC4C59;" d="M348.855,478.152L348.855,478.152c-9.655,0-17.482-7.827-17.482-17.482V336.878l-34.964-24.572h45.86
	c13.292,0,24.068,10.775,24.068,24.068V460.67C366.337,470.324,358.511,478.152,348.855,478.152z"/>
<path style="fill:#BC3B4A;" d="M348.855,434.222c-9.655,0-17.482-7.827-17.482-17.482v43.928c0,9.655,7.827,17.482,17.482,17.482
	c9.655,0,17.482-7.827,17.482-17.482V416.74C366.337,426.396,358.511,434.222,348.855,434.222z"/>
<path style="fill:#85E266;" d="M313.892,503.83L313.892,503.83c-9.655,0-17.482-7.827-17.482-17.482V336.878l-34.964-24.572h45.86
	c13.292,0,24.068,10.775,24.068,24.068V486.35C331.374,496.004,323.547,503.83,313.892,503.83z"/>
<path style="fill:#50C950;" d="M313.892,459.902L313.892,459.902c-9.655,0-17.482-7.827-17.482-17.482v43.928
	c0,9.655,7.827,17.482,17.482,17.482l0,0c9.655,0,17.482-7.827,17.482-17.482V442.42
	C331.374,452.075,323.547,459.902,313.892,459.902z"/>
<path style="fill:#3FA9F5;" d="M278.927,478.152L278.927,478.152c-9.655,0-17.482-7.827-17.482-17.482V356.134
	c0-12.297-6.129-22.545-15.023-31.038l-10.708-12.79h36.628c13.292,0,24.068,10.775,24.068,24.068V460.67
	C296.41,470.324,288.582,478.152,278.927,478.152z"/>
<path style="fill:#3784F4;" d="M278.927,434.222c-9.655,0-17.482-7.827-17.482-17.482v43.928c0,9.655,7.827,17.482,17.482,17.482
	c9.655,0,17.482-7.827,17.482-17.482V416.74C296.41,426.396,288.582,434.222,278.927,434.222z"/>
<path d="M445.55,121.07c-0.867-2.049-1.836-4.043-2.898-5.98C408.211,46.885,337.483,0,255.999,0
	C140.778,0,47.038,93.739,47.038,208.961c0,114.312,92.269,207.462,206.239,208.928v42.781c0,14.144,11.506,25.65,25.65,25.65
	c3.285,0,6.425-0.627,9.314-1.758v1.786c0,14.144,11.506,25.651,25.65,25.651s25.651-11.507,25.651-25.651v-1.786
	c2.889,1.131,6.028,1.758,9.313,1.758c14.144,0,25.651-11.506,25.651-25.65V336.374c0-4.876-1.095-9.5-3.041-13.647
	c13.098-15.96,20.267-35.845,20.267-56.666c0-4.512-3.656-8.169-8.169-8.169H221.011c-4.511,0-8.169,3.656-8.169,8.169
	c0,18.367,5.527,36.018,15.985,51.042c0.516,0.742,1.136,1.366,1.823,1.878l9.51,11.359c0.195,0.233,0.402,0.454,0.621,0.663
	c8.409,8.03,12.497,16.251,12.497,25.131v45.418C148.317,400.087,63.377,314.264,63.377,208.96
	C63.375,102.747,149.786,16.337,255.999,16.337c57.938,0,109.98,25.715,145.322,66.327c-5.42-1.433-11.105-2.206-16.968-2.206
	c-36.622,0-66.416,29.793-66.416,66.416c0,21.701,10.651,42.08,28.491,54.513c2.246,1.566,5.129,1.899,7.677,0.893
	c9.667-3.828,19.844-5.769,30.248-5.769c10.404,0,20.58,1.941,30.247,5.769c0.972,0.384,1.991,0.573,3.006,0.573
	c1.648,0,3.282-0.498,4.671-1.467c10.281-7.165,18.169-16.973,23.012-28.149c2.18,11.58,3.335,23.519,3.335,35.723
	c0,40.11-12.206,78.552-35.298,111.17c-2.607,3.682-1.735,8.781,1.946,11.387c3.686,2.608,8.782,1.735,11.387-1.946
	c25.058-35.395,38.302-77.101,38.302-120.61C464.961,177.581,457.996,147.803,445.55,121.07z M358.17,460.67
	c0,5.135-4.178,9.313-9.314,9.313c-5.135,0-9.313-4.178-9.313-9.313v-19.918v-6.265c0-4.512-3.656-8.169-8.169-8.169
	c-4.512,0-8.169,3.656-8.169,8.169v6.265v19.918v25.679c0,5.136-4.178,9.314-9.314,9.314c-5.135,0-9.313-4.178-9.313-9.314V375.313
	c0-4.512-3.656-8.169-8.169-8.169s-8.169,3.656-8.169,8.169v85.357c0,5.135-4.178,9.313-9.314,9.313
	c-5.135,0-9.313-4.178-9.313-9.313V356.134c0-12.879-5.46-24.868-16.234-35.659h8.065h10.897c8.767,0,15.899,7.133,15.899,15.899
	c0,4.512,3.656,8.169,8.169,8.169s8.169-3.656,8.169-8.169c0-5.779-1.537-11.203-4.211-15.899h6.939
	c8.767,0,15.899,7.133,15.899,15.899v0.504v55.674v0.004c0,4.512,3.656,8.169,8.169,8.169c4.512,0,8.169-3.656,8.169-8.169v-0.004
	v-55.674v-0.504c0-5.779-1.537-11.203-4.211-15.899h6.939c8.767,0,15.899,7.133,15.899,15.899V460.67z M239.866,304.137
	c-5.585-9.128-9.061-19.29-10.238-29.909h145.315c-1.447,13.001-6.344,25.299-14.21,35.743c-5.234-3.671-11.599-5.835-18.463-5.835
	h-34.965H296.41h-24.068h-10.897H239.866z M434.431,146.875c0,14.977-6.732,29.119-18.193,38.599
	c-10.27-3.518-20.974-5.3-31.885-5.3c-10.913,0-21.617,1.782-31.886,5.3c-11.461-9.48-18.193-23.622-18.193-38.599
	c0-27.614,22.466-50.079,50.079-50.079c18.865,0,35.32,10.488,43.858,25.937c0.805,1.6,1.586,3.213,2.346,4.838
	C433.05,133.515,434.431,140.035,434.431,146.875z"/>
<path d="M154.594,146.875c0,22.521,11.285,43.326,30.186,55.654c1.347,0.879,2.9,1.327,4.463,1.327c1.095,0,2.195-0.22,3.229-0.665
	c10.29-4.431,21.221-6.678,32.487-6.678c9.577,0,18.971,1.638,27.92,4.87c2.575,0.928,5.44,0.509,7.638-1.121
	c16.849-12.488,26.907-32.444,26.907-53.385c0-36.622-29.793-66.416-66.415-66.416C184.388,80.458,154.594,110.253,154.594,146.875z
	 M271.088,146.875c0,14.636-6.173,28.148-17.072,37.664c-9.392-2.897-19.145-4.364-29.057-4.364
	c-11.938,0-23.565,2.106-34.629,6.268c-12.218-9.467-19.4-23.974-19.4-39.567c0-27.614,22.466-50.079,50.079-50.079
	C248.623,96.795,271.088,119.261,271.088,146.875z"/>
<circle cx="402.122" cy="347.338" r="8.169"/>
<circle style="fill:#7F184C;" cx="230.811" cy="146.871" r="25.192"/>
<circle style="fill:#FFFFFF;" cx="237.967" cy="136.731" r="10.891"/>
<circle style="fill:#7F184C;" cx="394.182" cy="146.871" r="25.192"/>
<circle style="fill:#FFFFFF;" cx="401.338" cy="136.731" r="10.891"/>
<g>
</g>
<g>
</g>
<g>
</g>
<g>
</g>
<g>
</g>
<g>
</g>
<g>
</g>
<g>
</g>
<g>
</g>
<g>
</g>
<g>
</g>
<g>
</g>
<g>
</g>
<g>
</g>
<g>
</g>
</svg>
