<?xml version="1.0" encoding="iso-8859-1"?>
<!-- Generator: Adobe Illustrator 19.0.0, SVG Export Plug-In . SVG Version: 6.00 Build 0)  -->
<svg version="1.1" id="Layer_1" xmlns="http://www.w3.org/2000/svg" xmlns:xlink="http://www.w3.org/1999/xlink" x="0px" y="0px"
	 viewBox="0 0 512 512" style="enable-background:new 0 0 512 512;" xml:space="preserve">
<circle style="fill:#F4E3C3;" cx="256" cy="256" r="256"/>
<path style="fill:#FED8B2;" d="M509.686,290.445L367.928,148.687l-6.708,7.225l-41.782-41.782l-74.426,34.732l-75.779,10.743
	l-22.804,6.178l71.861,71.039l-58.035,70.396l-19.325,62.561l41.513,41.513l-32.546,15.376l84.409,84.409
	c7.154,0.6,14.386,0.924,21.694,0.924C385.703,512,492.859,415.539,509.686,290.445z"/>
<rect x="208.593" y="170.667" style="fill:#324A5E;" width="94.815" height="77.576"/>
<rect x="255.431" y="170.667" style="fill:#2B3B4E;" width="47.981" height="77.576"/>
<path style="fill:#FD8469;" d="M175.407,369.778h-28.444V244.076c0-9.125,7.397-16.52,16.522-16.52h11.923V369.778z"/>
<path style="fill:#FC6F58;" d="M336.593,369.778h28.444V244.076c0-9.125-7.397-16.52-16.52-16.52h-11.924V369.778z"/>
<rect x="160.754" y="152.135" style="fill:#324A5E;" width="48.269" height="8.62"/>
<rect x="312.889" y="152.135" style="fill:#2B3B4E;" width="48.269" height="8.62"/>
<path style="fill:#F1543F;" d="M307.059,202.231H204.941c-9.885,0-17.898-8.013-17.898-17.898v-57.296
	c0-9.885,8.013-17.898,17.898-17.898h102.117c9.885,0,17.898,8.013,17.898,17.898v57.296
	C324.956,194.217,316.944,202.231,307.059,202.231z"/>
<path style="fill:#C1321F;" d="M307.059,109.14h-51.633v93.091h51.633c9.885,0,17.898-8.013,17.898-17.898v-57.296
	C324.956,117.153,316.944,109.14,307.059,109.14z"/>
<rect x="184.458" y="312.889" style="fill:#FD8469;" width="50.772" height="113.778"/>
<rect x="276.773" y="312.889" style="fill:#FC6F58;" width="50.772" height="113.778"/>
<path style="fill:#2B9ED8;" d="M317.802,346.259H194.198c-12.997,0-23.531-10.535-23.531-23.531v-82.968
	c0-12.997,10.535-23.531,23.531-23.531h123.604c12.997,0,23.531,10.535,23.531,23.531v82.968
	C341.333,335.724,330.799,346.259,317.802,346.259z"/>
<path style="fill:#1D8CB7;" d="M317.802,216.228h-62.376V346.26h62.376c12.997,0,23.531-10.535,23.531-23.531v-82.968
	C341.333,226.763,330.799,216.228,317.802,216.228z"/>
<circle style="fill:#31BAFD;" cx="156.444" cy="155.686" r="14.222"/>
<circle style="fill:#F9B54C;" cx="221.522" cy="281.238" r="28.444"/>
<circle style="fill:#B5F1F4;" cx="213.333" cy="156.444" r="14.222"/>
<circle style="fill:#324A5E;" cx="213.333" cy="156.444" r="7.758"/>
<circle style="fill:#B5F1F4;" cx="298.667" cy="156.444" r="14.222"/>
<circle style="fill:#31BAFD;" cx="355.556" cy="155.686" r="14.222"/>
<rect x="273.67" y="242.45" style="fill:#E6F3FF;" width="49.993" height="77.576"/>
<rect x="149.897" y="398.222" style="fill:#324A5E;" width="85.333" height="28.444"/>
<rect x="276.773" y="398.222" style="fill:#2B3B4E;" width="85.333" height="28.444"/>
<rect x="336.593" y="341.333" style="fill:#F1543F;" width="34.478" height="28.444"/>
<rect x="140.929" y="341.333" style="fill:#FC6F58;" width="34.478" height="28.444"/>
<path style="fill:#324A5E;" d="M256,178.424c-8.08,0-14.653-6.573-14.653-14.653h5.172c0,5.227,4.255,9.481,9.481,9.481
	c5.227,0,9.481-4.255,9.481-9.481h5.172C270.653,171.851,264.08,178.424,256,178.424z"/>
<g>
	<path style="fill:#2B3B4E;" d="M265.481,163.771c0,5.227-4.255,9.481-9.481,9.481c-0.193,0-0.383-0.017-0.574-0.029v5.172
		c0.191,0.007,0.381,0.029,0.574,0.029c8.08,0,14.653-6.573,14.653-14.653H265.481z"/>
	<circle style="fill:#2B3B4E;" cx="298.667" cy="156.444" r="7.758"/>
</g>
<g>
</g>
<g>
</g>
<g>
</g>
<g>
</g>
<g>
</g>
<g>
</g>
<g>
</g>
<g>
</g>
<g>
</g>
<g>
</g>
<g>
</g>
<g>
</g>
<g>
</g>
<g>
</g>
<g>
</g>
</svg>
