<?xml version="1.0" encoding="iso-8859-1"?>
<!-- Generator: Adobe Illustrator 19.0.0, SVG Export Plug-In . SVG Version: 6.00 Build 0)  -->
<svg version="1.1" id="Layer_1" xmlns="http://www.w3.org/2000/svg" xmlns:xlink="http://www.w3.org/1999/xlink" x="0px" y="0px"
	 viewBox="0 0 512.005 512.005" style="enable-background:new 0 0 512.005 512.005;" xml:space="preserve">
<rect x="11.637" y="90.182" style="fill:#FDCC98;" width="500.369" height="331.631"/>
<rect x="256" y="90.182" style="fill:#FBAC50;" width="256" height="331.631"/>
<circle style="fill:#666666;" cx="176.874" cy="256.003" r="176.874"/>
<g>
	<path style="fill:#4D4D4D;" d="M353.745,256.003c0,97.684-79.189,176.873-176.873,176.873c0-124.003,0-288.733,0-353.745
		C274.557,79.13,353.745,158.319,353.745,256.003z"/>
	<path style="fill:#4D4D4D;" d="M85.06,256.003H51.669c0-69.038,56.166-125.204,125.204-125.204v33.391
		C126.247,164.19,85.06,205.377,85.06,256.003z"/>
</g>
<circle style="fill:#FF648D;" cx="176.874" cy="256.003" r="40.147"/>
<path style="fill:#FD387E;" d="M217.018,256.003c0,22.172-17.973,40.145-40.145,40.145c0-55.171,0-55.171,0-80.291
	C199.044,215.858,217.018,233.831,217.018,256.003z"/>
<polygon style="fill:#4D4D4D;" points="430.136,381.812 405.356,359.43 440.99,319.979 440.99,145.255 474.381,145.255 
	474.381,332.826 "/>
<rect x="403.367" y="90.182" style="fill:#FF648D;" width="108.633" height="112.874"/>
<g>
</g>
<g>
</g>
<g>
</g>
<g>
</g>
<g>
</g>
<g>
</g>
<g>
</g>
<g>
</g>
<g>
</g>
<g>
</g>
<g>
</g>
<g>
</g>
<g>
</g>
<g>
</g>
<g>
</g>
</svg>
